<?xml version="1.0" encoding="iso-8859-1"?>
<!-- Generator: Adobe Illustrator 15.1.0, SVG Export Plug-In . SVG Version: 6.00 Build 0)  -->
<!DOCTYPE svg PUBLIC "-//W3C//DTD SVG 1.1//EN" "http://www.w3.org/Graphics/SVG/1.1/DTD/svg11.dtd">
<svg version="1.1" id="Ebene_1" xmlns="http://www.w3.org/2000/svg" xmlns:xlink="http://www.w3.org/1999/xlink" x="0px" y="0px"
	 width="173.353px" height="46.955px" viewBox="0 0 173.353 46.955" style="enable-background:new 0 0 173.353 46.955;"
	 xml:space="preserve">
<g>
	<defs>
		<rect id="SVGID_1_" x="-198.425" y="-371.059" width="595.28" height="841.89"/>
	</defs>
	<clipPath id="SVGID_2_">
		<use xlink:href="#SVGID_1_"  style="overflow:visible;"/>
	</clipPath>
	<path style="clip-path:url(#SVGID_2_);fill:#E30613;" d="M161.347,0c0.976,0,1.831,0.364,2.542,1.09
		c0.712,0.721,1.074,1.602,1.074,2.597c0,1.02-0.354,1.888-1.064,2.61c-0.713,0.724-1.576,1.087-2.552,1.087
		c-0.996,0-1.854-0.363-2.552-1.087c-0.709-0.722-1.063-1.59-1.063-2.61c0-0.995,0.354-1.868,1.054-2.588
		C159.494,0.371,160.351,0,161.347,0 M173.353,14.625v-2.241c0-2.12-1.72-3.846-3.841-3.846h-16.331
		c-2.123,0-3.842,1.726-3.842,3.846v8.445h18.218v1.281h-18.218v2.242c0,2.121,1.719,3.84,3.842,3.84h16.331
		c2.121,0,3.841-1.719,3.841-3.84v-8.446h-18.216v-1.281H173.353z"/>
	<path style="clip-path:url(#SVGID_2_);fill:#00497B;" d="M6.572,8.478c4.065,0,6.174,0.458,6.174,2.353v1.926H7.182
		c-1.496,0-1.925,0.398-1.925,1.192c0,2.354,8.498,1.864,8.498,8.466c0,3.149-1.803,5.931-7.306,5.931
		C2.843,28.346,0,27.764,0,25.993v-1.926h6.572c1.345,0,1.987-0.429,1.987-1.376c0-2.568-8.467-2.079-8.467-8.864
		C0.092,10.831,2.079,8.478,6.572,8.478 M15.744,10.372c0-1.161,0.519-1.741,1.682-1.741h6.357c4.462,0,7.09,1.957,7.09,5.96
		c0,3.883-2.628,5.655-7.09,5.655h-3.148v7.946h-4.891V10.372z M20.635,12.757v3.515h2.781c1.62,0,2.567-0.336,2.567-1.772
		c0-1.406-0.947-1.743-2.567-1.743H20.635z M40.719,8.57c0.825,0,1.223,0.092,1.405,0.795l4.555,18.063
		c0.061,0.276,0.092,0.551,0.092,0.764h-4.005c-0.824,0-1.069-0.061-1.222-0.732l-0.947-3.913h-4.555l-0.885,3.913
		c-0.154,0.671-0.399,0.732-1.224,0.732H29.96c0-0.213,0.03-0.458,0.091-0.764l4.554-18.063c0.183-0.703,0.581-0.795,1.406-0.795
		H40.719z M36.775,19.879h3.026l-1.467-6.266h-0.122L36.775,19.879z M48.455,10.372c0-1.161,0.519-1.741,1.682-1.741h6.357
		c4.461,0,7.029,2.047,7.029,5.899c0,2.66-1.009,4.371-3.423,5.349l3.821,7.458c0.122,0.274,0.275,0.55,0.275,0.855h-4.217
		c-0.888,0-1.254,0-1.681-0.886l-3.425-7.06h-1.527v7.946h-4.891V10.372z M53.346,12.757v3.515h2.781
		c1.406,0,2.506-0.184,2.506-1.742c0-1.529-1.1-1.773-2.506-1.773H53.346z M70.617,17.587l4.891-8.07
		c0.459-0.794,0.733-0.886,1.375-0.886h4.586c0,0.305-0.063,0.551-0.245,0.855l-5.625,8.589l5.899,9.262
		c0.153,0.245,0.276,0.55,0.276,0.855h-4.433c-0.916,0-1.191-0.061-1.711-0.886l-5.013-8.039v8.925h-4.89v-17.82
		c0-1.161,0.519-1.741,1.681-1.741h3.209V17.587z M93.605,8.57c0.825,0,1.223,0.092,1.406,0.795l4.554,18.063
		c0.061,0.276,0.092,0.551,0.092,0.764h-4.004c-0.825,0-1.069-0.061-1.223-0.732l-0.947-3.913h-4.554l-0.886,3.913
		c-0.153,0.671-0.398,0.732-1.223,0.732h-3.973c0-0.213,0.03-0.458,0.091-0.764l4.554-18.063c0.183-0.703,0.581-0.795,1.406-0.795
		H93.605z M89.662,19.879h3.026l-1.467-6.266h-0.122L89.662,19.879z M107.301,8.478c4.065,0,6.174,0.458,6.174,2.353v1.926h-5.563
		c-1.498,0-1.926,0.398-1.926,1.192c0,2.354,8.497,1.864,8.497,8.466c0,3.149-1.803,5.931-7.304,5.931
		c-3.608,0-6.451-0.582-6.451-2.353v-1.926h6.572c1.345,0,1.986-0.429,1.986-1.376c0-2.568-8.467-2.079-8.467-8.864
		C100.821,10.831,102.808,8.478,107.301,8.478 M122.433,8.478c4.065,0,6.175,0.458,6.175,2.353v1.926h-5.563
		c-1.497,0-1.926,0.398-1.926,1.192c0,2.354,8.497,1.864,8.497,8.466c0,3.149-1.803,5.931-7.306,5.931
		c-3.607,0-6.449-0.582-6.449-2.353v-1.926h6.571c1.345,0,1.987-0.429,1.987-1.376c0-2.568-8.468-2.079-8.468-8.864
		C115.953,10.831,117.94,8.478,122.433,8.478 M131.607,10.372c0-1.161,0.52-1.741,1.681-1.741h10.698v2.415
		c0,1.161-0.582,1.711-1.743,1.711h-5.746v3.515h6.419v3.974h-6.419v3.821h7.643v2.413c0,1.163-0.581,1.712-1.742,1.712h-9.109
		c-1.161,0-1.681-0.581-1.681-1.742V10.372z M6.572,8.478c4.065,0,6.174,0.458,6.174,2.353v1.926H7.182
		c-1.496,0-1.925,0.398-1.925,1.192c0,2.354,8.498,1.864,8.498,8.466c0,3.149-1.802,5.931-7.306,5.931
		C2.843,28.346,0,27.764,0,25.993v-1.926h6.572c1.345,0,1.987-0.429,1.987-1.377c0-2.567-8.467-2.078-8.467-8.863
		C0.092,10.831,2.079,8.478,6.572,8.478 M15.744,10.372c0-1.161,0.519-1.741,1.682-1.741h6.357c4.463,0,7.091,1.957,7.091,5.96
		c0,3.883-2.628,5.655-7.091,5.655h-3.148v7.946h-4.891V10.372z M20.635,12.757v3.515h2.781c1.62,0,2.567-0.336,2.567-1.772
		c0-1.406-0.947-1.743-2.567-1.743H20.635z M40.719,8.57c0.825,0,1.223,0.092,1.406,0.795l4.554,18.063
		c0.062,0.276,0.092,0.551,0.092,0.764h-4.004c-0.825,0-1.069-0.061-1.223-0.732l-0.947-3.913h-4.554l-0.886,3.913
		c-0.153,0.671-0.398,0.732-1.223,0.732h-3.973c0-0.213,0.03-0.458,0.091-0.764l4.554-18.063c0.183-0.703,0.581-0.795,1.406-0.795
		H40.719z M36.776,19.879h3.026l-1.467-6.266h-0.122L36.776,19.879z M48.456,10.372c0-1.161,0.519-1.741,1.681-1.741h6.358
		c4.461,0,7.029,2.047,7.029,5.899c0,2.66-1.009,4.371-3.423,5.349l3.821,7.458c0.122,0.274,0.275,0.55,0.275,0.855H59.98
		c-0.888,0-1.254,0-1.681-0.886l-3.425-7.06h-1.527v7.946h-4.891V10.372z M53.347,12.757v3.515h2.781
		c1.406,0,2.506-0.184,2.506-1.742c0-1.529-1.1-1.773-2.506-1.773H53.347z M70.619,17.587l4.891-8.07
		c0.458-0.794,0.732-0.886,1.374-0.886h4.586c0,0.305-0.061,0.551-0.245,0.855L75.6,18.075l5.9,9.262
		c0.152,0.245,0.275,0.55,0.275,0.855h-4.432c-0.917,0-1.191-0.061-1.711-0.886l-5.013-8.039v8.925h-4.891v-17.82
		c0-1.161,0.519-1.741,1.681-1.741h3.21V17.587z M93.607,8.57c0.825,0,1.223,0.092,1.405,0.795l4.555,18.063
		c0.062,0.276,0.092,0.551,0.092,0.764h-4.005c-0.824,0-1.069-0.061-1.222-0.732l-0.947-3.913H88.93l-0.885,3.913
		c-0.154,0.671-0.398,0.732-1.224,0.732h-3.973c0-0.213,0.03-0.458,0.091-0.764l4.554-18.063C87.676,8.662,88.074,8.57,88.9,8.57
		H93.607z M89.663,19.879h3.027l-1.468-6.266h-0.121L89.663,19.879z M107.303,8.478c4.065,0,6.175,0.458,6.175,2.353v1.926h-5.563
		c-1.498,0-1.926,0.398-1.926,1.192c0,2.354,8.497,1.864,8.497,8.466c0,3.149-1.803,5.931-7.305,5.931
		c-3.607,0-6.45-0.582-6.45-2.353v-1.926h6.572c1.345,0,1.986-0.429,1.986-1.377c0-2.567-8.467-2.078-8.467-8.863
		C100.823,10.831,102.81,8.478,107.303,8.478 M122.436,8.478c4.066,0,6.175,0.458,6.175,2.353v1.926h-5.563
		c-1.498,0-1.927,0.398-1.927,1.192c0,2.354,8.497,1.864,8.497,8.466c0,3.149-1.803,5.931-7.305,5.931
		c-3.608,0-6.45-0.582-6.45-2.353v-1.926h6.572c1.345,0,1.987-0.429,1.987-1.377c0-2.567-8.469-2.078-8.469-8.863
		C115.955,10.831,117.942,8.478,122.436,8.478 M131.609,10.372c0-1.161,0.52-1.741,1.681-1.741h10.698v2.415
		c0,1.161-0.581,1.711-1.742,1.711H136.5v3.515h6.418v3.974H136.5v3.821h7.642v2.413c0,1.163-0.582,1.712-1.743,1.712h-9.109
		c-1.161,0-1.681-0.581-1.681-1.742V10.372z M4.624,32.534c2.307,0,3.971,0.156,3.971,1.132v0.754H4.69
		c-1.464,0-2.219,0.555-2.219,1.664c0,2.729,6.745,2.574,6.745,7.033c0,2.13-1.376,3.838-4.947,3.838
		c-2.064,0-4.127-0.199-4.127-1.131V45.07H4.49c1.664,0,2.485-0.622,2.485-1.842c0-2.795-6.722-2.64-6.722-7.166
		C0.253,33.976,1.695,32.534,4.624,32.534 M15.204,35.64c2.307,0,3.216,0.2,3.216,1.065v0.533h-3.017c-1.885,0-2.64,1.042-2.64,4.06
		c0,3.017,0.755,4.082,2.64,4.082h3.017v0.51c0,0.866-0.909,1.065-3.216,1.065c-3.528,0-4.504-2.551-4.504-5.657
		S11.676,35.64,15.204,35.64 M22.168,37.038c0.91-1.021,2.041-1.398,3.084-1.398c2.174,0,3.239,1.331,3.239,3.395v7.809h-1.974
		v-7.72c0-1.309-0.777-1.864-2.041-1.864c-0.821,0-1.686,0.399-2.308,0.932v8.652h-1.997V33.266c0-0.687,0.245-1.065,0.91-1.065
		h1.087V37.038z M40.292,46.889c-0.4,0-0.644-0.023-0.755-0.466l-1.953-7.61l-1.952,7.61c-0.111,0.443-0.355,0.466-0.754,0.466
		h-1.309c-0.422,0-0.644-0.023-0.777-0.466l-2.928-10.206c-0.067-0.2-0.067-0.355-0.067-0.466h1.531c0.422,0,0.577,0,0.688,0.444
		l2.307,8.564h0.089l2.063-8.564c0.089-0.444,0.267-0.444,0.688-0.444h0.821c0.421,0,0.599,0,0.71,0.444l2.108,8.564h0.089
		l2.262-8.564c0.111-0.444,0.266-0.444,0.688-0.444h1.509c0,0.111,0,0.266-0.067,0.466l-2.906,10.206
		c-0.111,0.443-0.355,0.466-0.754,0.466H40.292z M52.934,46.844c-0.71,0-0.976-0.377-0.976-0.931v-0.355
		c-0.91,1.02-2.13,1.397-3.106,1.397c-1.998,0-3.24-1.22-3.24-3.084c0-2.795,2.929-3.505,6.346-3.66v-1.043
		c0-1.509-1.021-1.93-2.375-1.93h-3.194v-0.577c0-0.976,1.153-1.021,3.483-1.021c2.551,0,4.06,1.11,4.06,3.439v7.765H52.934z
		 M51.958,41.475c-3.04,0.067-4.26,0.733-4.26,2.153c0,1.22,0.865,1.663,1.996,1.663c0.844,0,1.687-0.377,2.264-0.909V41.475z
		 M61.229,37.238h-5.347v-1.487h7.743v0.755c0,0.399-0.089,0.754-0.266,1.02l-5.347,7.854h5.768v1.464h-8.164v-0.71
		c0-0.376,0.089-0.688,0.288-0.976L61.229,37.238z"/>
</g>
</svg>
